#!OML:ASF E:\acrobat2\Project_11_07_03\Capture day 1\Session 1\Acrobat.ASF
:FULLY-SPECIFIED
:DEGREES
723
root 10.1369 16.3928 -15.0526 25.2173 -20.948 3.28833
lowerback 19.3858 -3.01036 -2.92114
upperback 6.9481 -4.5122 -0.577123
thorax -3.14767 -2.26188 2.00484
lowerneck 0.957345 10.0801 4.50979
upperneck -26.5519 11.3039 -15.1399
head -6.98895 6.44144 -6.36435
rclavicle -3.18055e-015 1.59028e-014
rhumerus 22.1027 10.0769 -86.5384
rradius 29.2777
rwrist 11.5954
rhand 9.89785 -34.7529
rfingers 7.12502
rthumb 35.0294 -61.3021
lclavicle -3.18055e-015 1.59028e-014
lhumerus -19.3174 24.3593 74.1174
lradius 103.348
lwrist 52.1978
lhand 34.7119 -14.9143
lfingers 7.12502
lthumb 57.8859 0.909016
rfemur -62.582 -18.0572 14.9994
rtibia 67.5395
rfoot -22.3505 -4.69594
rtoes -19.8529
lfemur -75.7622 35.3953 -31.4551
ltibia 70.671
lfoot -11.5953 -6.55723
ltoes 16.1675
724
root 10.1537 16.2108 -15.0902 26.2828 -21.3513 2.62667
lowerback 20.1947 -3.16036 -2.69115
upperback 7.16503 -4.676 -0.448893
thorax -3.32961 -2.33945 2.08911
lowerneck 1.3636 10.0919 4.47024
upperneck -27.4792 11.2814 -15.0903
head -7.378 6.44939 -6.44393
rclavicle 5.40694e-014 1.35174e-014
rhumerus 23.3402 11.135 -87.1739
rradius 31.8346
rwrist 8.95028
rhand 3.75621 -31.5705
rfingers 7.12502
rthumb 29.1829 -59.3026
lclavicle 5.40694e-014 1.35174e-014
lhumerus -17.8196 26.6091 73.1241
lradius 105.437
lwrist 53.9808
lhand 37.6512 -13.4681
lfingers 7.12502
lthumb 60.4212 -0.137688
rfemur -65.5879 -18.6067 16.9252
rtibia 69.2261
rfoot -22.9629 -5.32106
rtoes -18.3331
lfemur -79.0479 36.7624 -32.736
ltibia 72.1668
lfoot -12.8447 -5.04754
ltoes 15.9478
725
root 10.1712 16.02 -15.1242 27.3262 -21.7394 2.00623
lowerback 20.9841 -3.21625 -2.37509
upperback 7.37305 -4.70185 -0.403463
thorax -3.52951 -2.34738 2.00874
lowerneck 1.7552 9.9772 4.39401
upperneck -28.3242 11.1319 -14.8253
head -7.77587 6.37391 -6.44022
rclavicle -9.54166e-015 5.08889e-014
rhumerus 24.3699 11.9592 -87.6398
rradius 34.4768
rwrist 6.26354
rhand -2.76988 -28.5883
rfingers 7.12502
rthumb 22.9348 -57.2441
lclavicle -9.54166e-015 5.08889e-014
lhumerus -15.5872 28.5431 72.7785
lradius 107.278
lwrist 55.3631
lhand 40.1096 -12.04
lfingers 7.12502
lthumb 62.4859 -1.16463
rfemur -68.4986 -19.1581 18.9105
rtibia 70.8551
rfoot -23.704 -6.10844
rtoes -16.5453
lfemur -82.2982 37.9433 -34.0708
ltibia 73.5963
lfoot -13.6517 -3.7199
ltoes 16.7791
726
root 10.1888 15.8207 -15.1553 28.3028 -22.0884 1.52057
lowerback 21.7434 -3.18956 -2.02381
upperback 7.57777 -4.61516 -0.458939
thorax -3.73105 -2.29901 1.77308
lowerneck 2.15029 9.72272 4.30063
upperneck -29.0953 10.8424 -14.3388
head -8.18777 6.20543 -6.35113
rclavicle 3.97569e-015 -6.83819e-014
rhumerus 25.2948 12.4755 -87.9501
rradius 37.1026
rwrist 3.87713
rhand -9.21276 -26.0185
rfingers 7.12502
rthumb 16.7416 -55.3166
lclavicle 3.97569e-015 -6.83819e-014
lhumerus -12.5929 29.9919 73.1336
lradius 108.883
lwrist 56.192
lhand 41.7453 -10.7631
lfingers 7.12502
lthumb 63.8252 -1.74416
rfemur -71.3156 -19.7953 20.8734
rtibia 72.5265
rfoot -24.6315 -6.99947
rtoes -14.5885
lfemur -85.4424 38.8531 -35.4784
ltibia 74.9985
lfoot -14.1491 -2.68103
ltoes 18.6765
727
root 10.2062 15.6129 -15.1823 29.1445 -22.4023 1.24385
lowerback 22.4783 -3.09269 -1.6855
upperback 7.7966 -4.44372 -0.629266
thorax -3.91184 -2.20899 1.39651
lowerneck 2.54036 9.34166 4.17189
upperneck -29.789 10.4326 -13.6291
head -8.6079 5.95428 -6.16732
rclavicle 1.43125e-014 1.43125e-014
rhumerus 26.3352 12.644 -88.1372
rradius 39.4703
rwrist 2.09511
rhand -15.2135 -24.1136
rfingers 7.12502
rthumb 10.9588 -53.8076
lclavicle 1.43125e-014 1.43125e-014
lhumerus -8.8718 30.8193 74.17
lradius 110.256
lwrist 56.2867
lhand 42.2552 -9.7494
lfingers 7.12502
lthumb 64.2362 -1.35005
rfemur -74.02 -20.5847 22.7214
rtibia 74.3238
rfoot -25.7746 -7.91946
rtoes -12.5183
lfemur -88.3687 39.4679 -36.9421
ltibia 76.4276
lfoot -14.5573 -1.96766
ltoes 21.4099
728
root 10.2223 15.3972 -15.2034 29.779 -22.7182 1.18676
lowerback 23.2407 -2.91984 -1.40532
upperback 8.04738 -4.19217 -0.902839
thorax -4.07071 -2.08044 0.916979
lowerneck 2.86786 8.86359 3.95049
upperneck -30.364 9.94021 -12.6962
head -9.00717 5.64376 -5.86835
rclavicle -1.66979e-014 -1.98785e-014
rhumerus 27.4817 12.4501 -88.2292
rradius 41.5346
rwrist 1.11063
rhand -20.5395 -23.0851
rfingers 7.12502
rthumb 5.81895 -52.9852
lclavicle -1.66979e-014 -1.98785e-014
lhumerus -4.51918 30.9372 75.807
lradius 111.384
lwrist 55.4883
lhand 41.5149 -9.04048
lfingers 7.12502
lthumb 63.6384 0.251888
rfemur -76.5594 -21.5072 24.3688
rtibia 76.2809
rfoot -27.1191 -8.85702
rtoes -10.4104
lfemur -90.9497 39.8531 -38.3803
ltibia 77.9472
lfoot -15.1756 -1.53131
ltoes 24.5645
